<svg id="Layer_1" enable-background="new 0 0 24 24" height="24" viewBox="0 0 24 24" width="24" xmlns="http://www.w3.org/2000/svg"><g><g><g><path d="m17.1 22.2h-10.1c-1 0-1.8-.8-1.8-1.8v-14.7c0-1 .8-1.8 1.8-1.8h10.1c1 0 1.8.8 1.8 1.8v14.8c0 .9-.8 1.7-1.8 1.7zm-10.1-17.4c-.5 0-.9.4-.9.9v14.8c0 .5.4.9.9.9h10.1c.5 0 .9-.4.9-.9v-14.8c0-.5-.4-.9-.9-.9z"/></g><g><path d="m14.5 4.8h-5c-.2 0-.4-.2-.4-.4v-2.3c0-.2.2-.4.4-.4h5c.3 0 .4.2.4.4v2.2c.1.3-.1.5-.4.5zm-4.5-.9h4.1v-1.4h-4.1z"/></g></g><g><g><g><path d="m12.5 13.2h-1.7c-2 0-3.7-1.7-3.7-3.7v-1.7h1.7c2 0 3.7 1.7 3.7 3.7zm-4.5-4.5v.8c0 1.5 1.3 2.8 2.8 2.8h.8v-.8c0-1.6-1.3-2.8-2.8-2.8z"/></g><g><path d="m13.3 13.2h-1.7v-1.7c0-2 1.7-3.7 3.7-3.7h1.7v1.7c-.1 2-1.7 3.7-3.7 3.7zm-.8-.9h.8c1.5 0 2.8-1.3 2.8-2.8v-.8h-.8c-1.5 0-2.8 1.3-2.8 2.8z"/></g><g><path d="m11.7 13-4.4-4.4.6-.6 4.4 4.4z"/></g><g><path d="m12.4 13-.6-.6 4.4-4.4.6.6z"/></g></g><g><path d="m11.6 14.1h.9v5.5h-.9z"/></g></g></g></svg>