<svg height="512pt" viewBox="0 0 512 512.00019" width="512pt" xmlns="http://www.w3.org/2000/svg"><path d="m200.527344 81.085938c-.109375 44.660156 36.007812 80.953124 80.671875 81.0625 7.382812.019531 14.738281-.972657 21.851562-2.953126 4.546875-1.242187 7.222657-5.9375 5.976563-10.484374-.796875-2.90625-3.066406-5.179688-5.976563-5.976563-34.046875-9.304687-54.105469-44.449219-44.800781-78.5 5.960938-21.804687 22.996094-38.839844 44.800781-44.800781 4.546875-1.242188 7.222657-5.9375 5.976563-10.484375-.796875-2.90625-3.066406-5.179688-5.976563-5.976563-43.027343-11.957031-87.609375 13.226563-99.570312 56.257813-1.976563 7.117187-2.96875 14.46875-2.953125 21.855469zm68.195312-62.699219c-34.636718 28.191406-39.859375 79.125-11.667968 113.765625 3.480468 4.277344 7.390624 8.1875 11.667968 11.667968-34.636718-7.035156-57.015625-40.816406-49.980468-75.453124 5.113281-25.183594 24.796874-44.867188 49.980468-49.980469zm0 0"/><path d="m81.066406 337.074219c15.191406-.007813 30.070313-4.296875 42.929688-12.382813 4.007812-2.480468 5.242187-7.742187 2.757812-11.746094-.695312-1.121093-1.636718-2.0625-2.757812-2.757812-29.945313-18.636719-39.113282-58.015625-20.476563-87.960938 5.167969-8.304687 12.171875-15.308593 20.476563-20.476562 4.007812-2.480469 5.242187-7.742188 2.757812-11.746094-.695312-1.121094-1.636718-2.066406-2.757812-2.761718-37.980469-23.703126-87.984375-12.132813-111.6875 25.847656-23.707032 37.976562-12.136719 87.984375 25.84375 111.6875 12.871094 8.035156 27.742187 12.296875 42.914062 12.296875zm0-145.058594c7.617188 0 15.167969 1.371094 22.296875 4.050781-33.105469 30.019532-35.609375 81.195313-5.589843 114.300782 1.773437 1.953124 3.636718 3.816406 5.589843 5.589843-7.128906 2.679688-14.679687 4.050781-22.296875 4.050781-35.34375 0-63.996094-28.652343-63.996094-63.996093s28.652344-63.996094 63.996094-63.996094zm0 0"/><path d="m401.753906 362.355469c-9.21875 12.785156-20.09375 24.285156-32.339844 34.203125-3.664062 2.96875-4.222656 8.34375-1.253906 12.003906 2.96875 3.664062 8.34375 4.222656 12.003906 1.253906 13.421876-10.867187 25.339844-23.472656 35.4375-37.484375 2.753907-3.824219 1.886719-9.15625-1.9375-11.910156-3.824218-2.757813-9.15625-1.886719-11.910156 1.933594zm0 0"/><path d="m381.121094 127.71875c4.4375 1.582031 9.320312-.730469 10.902344-5.171875 1.148437-3.21875.265624-6.808594-2.242188-9.128906-12.675781-11.738281-26.847656-21.738281-42.152344-29.746094-4.148437-2.242187-9.324218-.695313-11.5625 3.453125-2.238281 4.144531-.695312 9.324219 3.453125 11.5625.066407.035156.132813.070312.199219.101562 13.964844 7.304688 26.902344 16.433594 38.464844 27.144532.847656.789062 1.847656 1.398437 2.9375 1.785156zm0 0"/><path d="m100.691406 369.304688c-3.410156 3.25-3.535156 8.652343-.28125 12.0625 11.917969 12.492187 25.433594 23.355468 40.191406 32.308593 1.042969.628907 2.203126 1.027344 3.414063 1.175781 4.675781.566407 8.925781-2.769531 9.492187-7.449218.402344-3.328125-1.183593-6.582032-4.050781-8.320313-13.472656-8.179687-25.808593-18.097656-36.691406-29.503906-3.253906-3.410156-8.652344-3.539063-12.0625-.285156-.003906.003906-.007813.007812-.011719.011719zm0 0"/><path d="m107.519531 137.632812c3.457031 3.203126 8.855469 2.996094 12.054688-.460937 10.714843-11.5625 22.902343-21.671875 36.25-30.0625 3.988281-2.507813 5.1875-7.777344 2.679687-11.765625-2.511718-3.988281-7.777344-5.1875-11.765625-2.679688-14.613281 9.1875-27.953125 20.25-39.679687 32.910157-3.203125 3.457031-2.996094 8.855469.460937 12.058593zm0 0"/><path d="m430.917969 174.949219c-44.769531 0-81.0625 36.292969-81.0625 81.0625s36.292969 81.0625 81.0625 81.0625 81.0625-36.292969 81.0625-81.0625c-.050781-44.75-36.3125-81.011719-81.0625-81.0625zm0 145.058593c-35.34375 0-63.996094-28.652343-63.996094-63.996093s28.652344-63.996094 63.996094-63.996094 63.996093 28.652344 63.996093 63.996094c-.035156 35.328125-28.667968 63.957031-63.996093 63.996093zm0 0"/><path d="m255.992188 512c22.660156-.054688 44.269531-9.566406 59.613281-26.246094 3.007812-3.269531 3.007812-8.296875 0-11.5625-22.597657-24.410156-22.597657-62.097656 0-86.507812 3.007812-3.265625 3.007812-8.296875 0-11.5625-30.277344-32.984375-81.554688-35.179688-114.539063-4.902344-32.980468 30.273438-35.175781 81.550781-4.902344 114.535156 15.378907 16.753906 37.085938 26.277344 59.828126 26.246094zm0-145.058594c15.34375-.054687 30.183593 5.480469 41.742187 15.570313-21.523437 28.695312-21.523437 68.15625 0 96.851562-11.558594 10.089844-26.398437 15.625-41.742187 15.570313-35.34375 0-63.996094-28.652344-63.996094-63.996094s28.652344-63.996094 63.996094-63.996094zm0 0"/></svg>